<svg xmlns="http://www.w3.org/2000/svg" width="128" height="128" viewBox="0 0 128 128">
  <!-- Blue rounded-square background -->
  <rect width="128" height="128" rx="22" fill="#1f73b7"/>
  <!-- Table icon, scaled to ~75 px and centered in the 128×128 canvas -->
  <g transform="translate(26.5, 26.5) scale(3.125)" fill="white">
    <!-- Header row: solid with rounded top corners -->
    <path d="M3 2h18a2 2 0 0 1 2 2v5H1V4a2 2 0 0 1 2-2z"/>
    <!-- Table body: rounded bottom corners; cells punched via evenodd to reveal grid lines -->
    <path fill-rule="evenodd" clip-rule="evenodd" d="M1 9h22v11a2 2 0 0 1-2 2H3a2 2 0 0 1-2-2V9zm1.5 1.5h6.5v3.5H2.5v-3.5zm8.5 0h10.5v3.5H11v-3.5zm-8.5 5.5h6.5v4H2.5v-4zm8.5 0h10.5v4H11v-4z"/>
  </g>
</svg>
